<svg width="280" height="64" viewBox="0 0 280 64" fill="none" xmlns="http://www.w3.org/2000/svg">
  
  
  <path d="M60,16 C60,9.373 54.627,4 48,4 L16,4 C9.373,4 4,9.373 4,16 L4,48 C4,54.627 9.373,60 16,60 L48,60 C54.627,60 60,54.627 60,48 L60,42 L48,42 C48,47.523 44.418,52 38,52 L26,52 C18.268,52 12,45.732 12,38 L12,26 C12,18.268 18.268,12 26,12 L38,12 C44.418,12 48,16.477 48,22 L60,22 Z" fill="#C9A84C"></path>
  <text x="76" y="41" font-family="&#39;SF Pro Display&#39;,&#39;Helvetica Neue&#39;,Helvetica,Arial,sans-serif" font-size="28" font-weight="500" fill="#FAFAF5" letter-spacing="-0.5">Colvesta</text>
</svg>